HIERARCHY
ROOT Hips
{
    OFFSET 0.000000 0.000000 0.000000
    CHANNELS 6 Xposition Yposition Zposition Zrotation Xrotation Yrotation
    JOINT Spine
    {
        OFFSET -0.000000 7.236184 0.000000
        CHANNELS 3 Zrotation Xrotation Yrotation
        JOINT Spine1
        {
            OFFSET -0.000000 20.420147 0.000000
            CHANNELS 3 Zrotation Xrotation Yrotation
            JOINT Neck
            {
                OFFSET -0.000000 20.336288 1.848754
                CHANNELS 3 Zrotation Xrotation Yrotation
                JOINT Head
                {
                    OFFSET -0.000000 12.354461 -1.764923
                    CHANNELS 3 Zrotation Xrotation Yrotation
                    End Site
                    {
                        OFFSET -0.000000 22.061537 0.000000
                    }
                }
            }
            JOINT LeftShoulder
            {
                OFFSET 3.573296 18.396038 -0.314103
                CHANNELS 3 Zrotation Xrotation Yrotation
                JOINT LeftArm
                {
                    OFFSET 10.880760 0.000000 0.000000
                    CHANNELS 3 Zrotation Xrotation Yrotation
                    JOINT LeftForeArm
                    {
                        OFFSET 27.185530 0.000000 0.000000
                        CHANNELS 3 Zrotation Xrotation Yrotation
                        JOINT LeftHand
                        {
                            OFFSET 27.825975 0.000000 0.000000
                            CHANNELS 3 Zrotation Xrotation Yrotation
                            End Site
                            {
                                OFFSET 13.236923 0.000000 0.000000
                            }
                        }
                    }
                }
            }
            JOINT RightShoulder
            {
                OFFSET -3.474926 18.396038 -0.314103
                CHANNELS 3 Zrotation Xrotation Yrotation
                JOINT RightArm
                {
                    OFFSET -10.880760 0.000000 0.000000
                    CHANNELS 3 Zrotation Xrotation Yrotation
                    JOINT RightForeArm
                    {
                        OFFSET -27.185530 0.000000 0.000000
                        CHANNELS 3 Zrotation Xrotation Yrotation
                        JOINT RightHand
                        {
                            OFFSET -27.825975 0.000000 0.000000
                            CHANNELS 3 Zrotation Xrotation Yrotation
                            End Site
                            {
                                OFFSET -13.236923 0.000000 0.000000
                            }
                        }
                    }
                }
            }
        }
    }
    JOINT LeftUpLeg
    {
        OFFSET 8.824615 0.000000 0.000000
        CHANNELS 3 Zrotation Xrotation Yrotation
        JOINT LeftLeg
        {
            OFFSET -0.000000 -35.111282 0.000000
            CHANNELS 3 Zrotation Xrotation Yrotation
            JOINT LeftFoot
            {
                OFFSET -0.000000 -42.324711 0.000000
                CHANNELS 3 Zrotation Xrotation Yrotation
                JOINT LeftToeBase
                {
                    OFFSET -0.000000 -5.735999 13.236923
                    CHANNELS 3 Zrotation Xrotation Yrotation
                    End Site
                    {
                        OFFSET -0.000000 0.000000 3.529846
                    }
                }
            }
        }
    }
    JOINT RightUpLeg
    {
        OFFSET -8.824615 0.000000 0.000000
        CHANNELS 3 Zrotation Xrotation Yrotation
        JOINT RightLeg
        {
            OFFSET -0.000000 -35.111282 0.000000
            CHANNELS 3 Zrotation Xrotation Yrotation
            JOINT RightFoot
            {
                OFFSET -0.000000 -42.324711 0.000000
                CHANNELS 3 Zrotation Xrotation Yrotation
                JOINT RightToeBase
                {
                    OFFSET -0.000000 -5.735999 13.236923
                    CHANNELS 3 Zrotation Xrotation Yrotation
                    End Site
                    {
                        OFFSET -0.000000 0.000000 3.529846
                    }
                }
            }
        }
    }
}
MOTION
Frames:    6
Frame Time:    0.008333
-9.594253    82.416763    100.459221    -1.521350    -2.878599    -173.510361    -2.283629    -8.147997    1.058149    -1.849322    6.105092    1.319462    3.303644    7.573279    5.585072    -1.068442    -37.692741    5.043695    -4.940274    16.141928    -4.621918    -40.241905    35.254818    -46.974777    13.956954    7.207011    -12.422318    54.691685    11.591165    5.637679    12.412456    15.950891    -3.189358    29.681244    37.178501    51.291561    -16.188633    -4.680902    42.210541    -31.151171    2.131928    -1.872946    -4.276260    -14.303932    -12.045492    -1.718214    32.120304    16.869473    -4.536702    -17.804270    -15.681261    0.123518    1.248533    -0.136611    -3.177611    -12.159082    4.993786    7.307128    31.825743    -3.264410    -3.270063    -13.491078    -16.248987    0.053890    -5.083735    -0.058707    
-9.587036    82.335434    100.440506    -1.383551    -3.053269    -173.544724    -2.210504    -8.249992    1.021363    -1.861168    6.168012    1.281067    3.185028    7.776569    6.006991    0.310796    -38.748108    6.135969    -5.047996    16.172758    -4.131063    -41.757702    33.677952    -45.084064    12.843325    7.098797    -10.892578    54.433266    11.383370    6.044646    12.613634    16.230585    -3.603607    31.602879    36.331463    49.276600    -14.867948    -3.822970    39.907543    -31.664200    2.019776    -1.458778    -4.083986    -14.733109    -11.891214    -1.817929    32.536057    16.964529    -4.679017    -17.729540    -15.971518    0.096219    1.108349    -0.106445    -3.170827    -12.559149    4.483105    7.255863    32.227802    -3.023170    -3.169344    -13.437965    -15.986098    0.017285    -5.116274    -0.018827    
-9.580032    82.298401    100.401512    -1.270949    -3.231366    -173.587250    -2.185179    -8.373474    0.992342    -1.838953    6.223434    1.252341    3.037129    7.958096    6.438888    1.798452    -39.769840    7.316388    -5.130354    16.166718    -3.612665    -43.222012    31.929920    -43.144020    11.734821    6.914263    -9.382190    54.088779    11.139647    6.481283    12.786821    16.485172    -4.047146    33.669785    35.222954    47.109470    -13.426832    -3.058436    37.464481    -32.355988    1.805375    -0.996695    -3.877060    -15.072251    -11.693797    -1.917973    32.798428    17.009327    -4.833982    -17.554256    -16.263071    0.077559    0.941894    -0.085827    -3.190004    -12.818223    3.908152    7.117594    32.404053    -2.772926    -3.003708    -13.345291    -15.596941    -0.027536    -5.143028    0.030009    
-9.573351    82.312668    100.342049    -1.177727    -3.414627    -173.634674    -2.202486    -8.514956    0.969674    -1.778377    6.258302    1.230912    2.867507    8.101603    6.872553    3.361775    -40.711609    8.559902    -5.183402    16.121584    -3.070415    -44.614655    30.021477    -41.167637    10.655261    6.653563    -7.900704    53.659233    10.854410    6.935953    12.926645    16.702740    -4.516559    35.831600    33.836620    44.813572    -11.881962    -2.436194    34.887211    -33.187965    1.455526    -0.484806    -3.649703    -15.323627    -11.462596    -2.021951    32.903610    17.014853    -5.005867    -17.261660    -16.564260    0.067138    0.742127    -0.074321    -3.229573    -12.937781    3.282343    6.898609    32.349201    -2.519658    -2.749321    -13.197717    -15.070225    -0.078936    -5.176274    0.086019    
-9.567456    82.383392    100.262474    -1.097002    -3.601981    -173.684052    -2.253520    -8.667217    0.951717    -1.678411    6.259855    1.214280    2.686733    8.194474    7.299669    4.961277    -41.533573    9.834556    -5.205430    16.037838    -2.506746    -45.914173    27.963606    -39.169003    9.628140    6.324087    -6.454234    53.148163    10.525716    7.392974    13.030056    16.873922    -5.007565    38.025810    32.161148    42.420792    -10.266424    -2.003191    32.184643    -34.092121    0.944230    0.072994    -3.397899    -15.489300    -11.205728    -2.128616    32.852669    16.995636    -5.201520    -16.837294    -16.889462    0.063258    0.502279    -0.070056    -3.284743    -12.924757    2.627427    6.617690    32.069485    -2.275419    -2.386029    -12.977215    -14.403330    -0.135743    -5.227579    0.147930    
-9.563250    82.513878    100.163521    -1.022230    -3.790213    -173.733444    -2.328338    -8.821302    0.937304    -1.538998    6.217666    1.200539    2.505472    8.229468    7.712322    6.554657    -42.207405    11.104589    -5.196801    15.918626    -1.924666    -47.098347    25.766960    -37.162849    8.675021    5.942006    -5.047440    52.562511    10.158592    7.834754    13.092765    16.991369    -5.515713    40.186222    30.190937    39.968624    -8.629253    -1.797428    29.371248    -34.984268    0.258442    0.666145    -3.120672    -15.570300    -10.926669    -2.229535    32.649559    16.963011    -5.430501    -16.268608    -17.255823    0.062945    0.218282    -0.069744    -3.353564    -12.789241    1.973354    6.305509    31.579290    -2.058022    -1.901146    -12.664269    -13.605175    -0.197590    -5.307095    0.215352    
